<svg version="1.1" id="Layer_1" xmlns="http://www.w3.org/2000/svg" xmlns:xlink="http://www.w3.org/1999/xlink" x="0px" y="0px"
	 width="100%" viewBox="0 0 512 512" enable-background="new 0 0 512 512" xml:space="preserve">
<path fill="none" opacity="1.000000" stroke="none" 
	d="
M0.999999,346.000000 
	C1.000000,231.041138 1.000000,116.082283 1.000000,1.061711 
	C171.564453,1.061711 342.128937,1.061711 513.000000,1.061711 
	C513.000000,116.023148 513.000000,231.046555 512.655518,346.514587 
	C509.877197,345.000458 507.443451,343.041748 504.886505,340.648499 
	C494.175323,340.107178 483.587311,340.000366 473.000671,339.942352 
	C473.002014,339.991150 473.099609,339.988281 473.057800,339.522186 
	C473.012909,265.421692 473.028107,191.787292 472.964325,118.152954 
	C472.960205,113.410202 472.626221,108.628532 471.964600,103.932762 
	C469.826477,88.758125 454.101868,74.142014 437.880951,74.073380 
	C379.074463,73.824577 320.266235,73.979721 261.458679,73.992172 
	C259.964111,73.992493 258.469574,74.105141 256.513062,74.090683 
	C197.578568,74.007256 139.105972,73.981522 80.633438,74.033455 
	C77.234634,74.036476 73.756386,74.316696 70.451096,75.066963 
	C51.622334,79.340858 40.123207,94.321266 40.072289,113.063049 
	C39.866802,188.693512 39.961838,264.324799 39.481384,339.971313 
	C30.086040,339.987762 21.154762,339.943542 12.224846,340.033844 
	C10.725735,340.048981 9.232509,340.646301 7.424584,341.098419 
	C5.075069,342.814819 3.037534,344.407410 0.999999,346.000000 
z"/>
<path fill="none" opacity="1.000000" stroke="none" 
	d="
M513.000000,411.000000 
	C513.000000,444.979156 513.000000,478.958282 513.000000,512.937866 
	C342.333313,512.938354 171.666656,512.938354 1.000000,512.938354 
	C1.000000,479.896942 1.000000,446.917145 1.370017,413.454437 
	C2.413700,414.400787 2.952426,415.914642 3.786182,417.243439 
	C6.355759,421.338715 8.393450,426.048798 11.816011,429.266968 
	C18.164618,435.236450 25.859943,439.076782 35.155441,439.421234 
	C37.169643,439.879181 38.994888,439.992188 40.820152,439.992432 
	C110.717010,440.001373 180.613861,440.001251 250.510727,439.993134 
	C252.337311,439.992920 254.163910,439.890594 256.454224,439.912598 
	C329.844116,439.993134 402.770325,440.003174 475.696472,439.958252 
	C477.208618,439.957336 478.720367,439.319397 480.632935,439.020844 
	C493.618835,438.353088 505.362061,428.674927 510.271912,415.134705 
	C510.819244,413.625214 512.073547,412.372040 513.000000,411.000000 
z"/>
<path fill="#35355E" opacity="1.000000" stroke="none" 
	d="
M513.000000,410.531342 
	C512.073547,412.372040 510.819244,413.625214 510.271912,415.134705 
	C505.362061,428.674927 493.618835,438.353088 480.152466,438.961914 
	C405.683105,438.886536 332.094818,438.912628 258.506561,438.930511 
	C258.012115,438.930603 257.517670,438.816650 257.018280,438.302612 
	C256.992554,421.987061 256.971802,406.124847 257.418701,390.195587 
	C274.517029,390.103027 291.147675,390.098297 307.778198,390.045685 
	C322.184204,390.000092 330.457123,382.010925 330.737396,367.630768 
	C330.912323,358.654572 330.725952,349.671326 331.176483,340.575348 
	C376.649567,340.427551 421.647858,340.400696 466.646149,340.347961 
	C468.797455,340.345428 470.948456,340.113434 473.099609,339.988281 
	C473.099609,339.988281 473.002014,339.991150 473.248871,340.292419 
	C484.000366,340.756805 494.505035,340.919922 505.009674,341.083038 
	C507.443451,343.041748 509.877197,345.000458 512.655518,346.979584 
	C513.000000,368.020905 513.000000,389.041779 513.000000,410.531342 
z"/>
<path fill="#45456B" opacity="1.000000" stroke="none" 
	d="
M256.951050,390.262634 
	C256.971802,406.124847 256.992554,421.987061 256.761414,438.385254 
	C256.338074,438.975555 256.166626,439.029938 255.536377,438.983276 
	C182.367386,438.863464 109.657204,438.844147 36.947021,438.834076 
	C36.286854,438.833984 35.626671,438.957764 34.966496,439.023743 
	C25.859943,439.076782 18.164618,435.236450 11.816011,429.266968 
	C8.393450,426.048798 6.355759,421.338715 3.786182,417.243439 
	C2.952426,415.914642 2.413700,414.400787 1.370017,412.985779 
	C1.000000,390.979095 1.000000,368.958221 0.999999,346.468658 
	C3.037534,344.407410 5.075069,342.814819 7.893815,341.232971 
	C19.166531,341.028046 29.658035,340.812347 40.608376,340.609314 
	C86.085419,340.623322 131.103622,340.620453 176.121826,340.639069 
	C178.272476,340.639984 180.423065,340.830872 182.560760,341.407715 
	C182.553726,350.851959 182.462952,359.823151 182.588974,368.791260 
	C182.762863,381.166077 190.835938,389.575165 203.183517,389.713226 
	C221.118515,389.913757 239.058258,389.691650 256.975464,389.802307 
	C256.954926,389.954803 256.951050,390.262634 256.951050,390.262634 
z"/>
<path fill="#B5E5D3" opacity="1.000000" stroke="none" 
	d="
M473.057800,339.522186 
	C470.948456,340.113434 468.797455,340.345428 466.646149,340.347961 
	C421.647858,340.400696 376.649567,340.427551 330.748230,340.455078 
	C326.353363,340.419586 322.861572,340.374939 319.369690,340.359619 
	C298.585327,340.268524 277.800964,340.184265 256.993408,339.623352 
	C256.891113,318.034790 256.811981,296.920563 256.798309,275.636414 
	C256.863770,275.466431 257.003204,275.131165 257.450714,275.235382 
	C278.534546,275.680542 295.795685,261.499359 297.286163,240.836426 
	C298.561371,223.157928 298.356842,205.258682 297.245667,187.555054 
	C296.194031,170.800568 283.199860,157.609848 266.850555,154.194031 
	C263.613556,153.517746 260.269073,153.355728 256.955109,152.490906 
	C256.949005,126.071968 256.962006,100.118683 256.975006,74.165398 
	C258.469574,74.105141 259.964111,73.992493 261.458679,73.992172 
	C320.266235,73.979721 379.074463,73.824577 437.880951,74.073380 
	C454.101868,74.142014 469.826477,88.758125 471.964600,103.932762 
	C472.626221,108.628532 472.960205,113.410202 472.964325,118.152954 
	C473.028107,191.787292 473.012909,265.421692 473.057800,339.522186 
M340.189606,178.387878 
	C340.189606,180.816269 340.189606,183.244644 340.189606,186.151062 
	C345.893555,186.151062 350.819702,186.151062 356.378784,186.151062 
	C356.378784,214.661194 356.378784,242.689362 356.378784,270.647949 
	C367.274658,270.647949 377.516296,270.647949 387.722717,270.647949 
	C387.722717,232.767944 387.722717,195.245331 387.722717,157.649368 
	C371.779694,157.649368 356.231812,157.649368 340.189636,157.649368 
	C340.189636,164.496506 340.189636,170.956863 340.189606,178.387878 
z"/>
<path fill="#DCF1EA" opacity="1.000000" stroke="none" 
	d="
M256.732849,275.806335 
	C256.811981,296.920563 256.891113,318.034790 256.914795,339.789368 
	C256.859344,340.429718 256.749603,340.780548 256.307007,340.709991 
	C250.045349,340.640350 244.226151,340.619263 238.407181,340.646179 
	C219.795975,340.732300 201.184845,340.836212 182.573685,340.933289 
	C180.423065,340.830872 178.272476,340.639984 176.121826,340.639069 
	C131.103622,340.620453 86.085419,340.623322 40.644318,340.421387 
	C40.221428,340.220764 39.945900,339.955780 39.945900,339.955780 
	C39.961838,264.324799 39.866802,188.693512 40.072289,113.063049 
	C40.123207,94.321266 51.622334,79.340858 70.451096,75.066963 
	C73.756386,74.316696 77.234634,74.036476 80.633438,74.033455 
	C139.105972,73.981522 197.578568,74.007256 256.513062,74.090683 
	C256.962006,100.118683 256.949005,126.071968 256.737000,152.699982 
	C256.393127,153.514938 256.248291,153.655136 255.697159,153.704391 
	C233.201706,153.845901 216.376404,168.842850 215.464249,190.191879 
	C214.774918,206.326401 214.797836,222.536072 215.465240,238.672531 
	C216.298752,258.825562 232.173080,274.107880 252.294083,275.310028 
	C253.778259,275.398712 255.253464,275.637390 256.732849,275.806335 
M118.522385,247.063599 
	C124.518585,247.063583 130.514786,247.063538 136.510986,247.063568 
	C147.586060,247.063599 147.586121,247.063614 147.788055,258.291687 
	C147.794037,258.624756 147.786942,258.958252 147.800293,259.290955 
	C148.133972,267.602631 154.350174,273.952637 162.339951,274.145599 
	C170.525467,274.343323 177.287155,268.023743 177.752670,259.615143 
	C177.918198,256.625488 177.903534,253.617065 177.794388,250.623642 
	C177.702606,248.107101 178.628113,246.976456 181.250031,247.015717 
	C183.055389,247.042786 184.937393,246.824615 186.665009,246.311539 
	C193.501785,244.281143 197.868256,237.681824 197.223083,230.620178 
	C196.549271,223.245117 190.791428,217.432678 182.937088,217.159805 
	C178.727478,217.013550 177.532669,215.651794 177.734467,211.609604 
	C178.041336,205.462357 177.898697,199.286438 177.782440,193.125778 
	C177.608017,183.883179 171.174286,177.387482 162.483795,177.508041 
	C154.033951,177.625275 147.921860,184.088364 147.805298,193.170929 
	C147.719818,199.832336 147.893250,206.499237 147.678207,213.154877 
	C147.637329,214.419937 146.373398,216.678070 145.579056,216.720886 
	C139.847351,217.029846 134.091263,216.886505 128.085388,216.886505 
	C128.259338,214.971756 128.302612,213.825302 128.475113,212.698639 
	C130.566315,199.039795 132.797943,185.401108 134.739792,171.721222 
	C136.063248,162.397629 130.689835,154.907837 122.266830,153.745941 
	C113.769348,152.573792 106.505875,157.886108 105.103264,166.724335 
	C101.763802,187.767410 98.527115,208.827759 95.427361,229.907394 
	C94.113464,238.842377 100.467682,246.347687 109.541687,246.976944 
	C112.195000,247.160950 114.869240,247.043106 118.522385,247.063599 
z"/>
<path fill="#8D7E91" opacity="1.000000" stroke="none" 
	d="
M504.886505,340.648499 
	C494.505035,340.919922 484.000366,340.756805 473.247498,340.243622 
	C483.587311,340.000366 494.175323,340.107178 504.886505,340.648499 
z"/>
<path fill="#B4A4B3" opacity="1.000000" stroke="none" 
	d="
M39.481384,339.971313 
	C39.945900,339.955780 40.221428,340.220764 40.185486,340.408722 
	C29.658035,340.812347 19.166531,341.028046 8.205794,341.109161 
	C9.232509,340.646301 10.725735,340.048981 12.224846,340.033844 
	C21.154762,339.943542 30.086040,339.987762 39.481384,339.971313 
z"/>
<path fill="#E5E5EA" opacity="1.000000" stroke="none" 
	d="
M255.995163,439.084290 
	C256.166626,439.029938 256.338074,438.975555 256.766357,438.838593 
	C257.517670,438.816650 258.012115,438.930603 258.506561,438.930511 
	C332.094818,438.912628 405.683105,438.886536 479.751831,438.919678 
	C478.720367,439.319397 477.208618,439.957336 475.696472,439.958252 
	C402.770325,440.003174 329.844116,439.993134 256.454163,439.724670 
	C255.990402,439.460114 255.995163,439.084290 255.995163,439.084290 
z"/>
<path fill="#ECECF0" opacity="1.000000" stroke="none" 
	d="
M255.536377,438.983276 
	C255.995163,439.084290 255.990402,439.460114 255.990448,439.648010 
	C254.163910,439.890594 252.337311,439.992920 250.510727,439.993134 
	C180.613861,440.001251 110.717010,440.001373 40.820152,439.992432 
	C38.994888,439.992188 37.169643,439.879181 35.155441,439.421265 
	C35.626671,438.957764 36.286854,438.833984 36.947021,438.834076 
	C109.657204,438.844147 182.367386,438.863464 255.536377,438.983276 
z"/>
<path fill="#D92657" opacity="1.000000" stroke="none" 
	d="
M256.749603,340.780548 
	C256.749603,340.780548 256.859344,340.429718 256.937988,340.263702 
	C277.800964,340.184265 298.585327,340.268524 319.369690,340.359619 
	C322.861572,340.374939 326.353363,340.419586 330.273438,340.570923 
	C330.725952,349.671326 330.912323,358.654572 330.737396,367.630768 
	C330.457123,382.010925 322.184204,390.000092 307.778198,390.045685 
	C291.147675,390.098297 274.517029,390.103027 257.418732,390.195587 
	C256.951050,390.262634 256.954926,389.954803 256.957428,389.357422 
	C256.889801,372.766907 256.819702,356.773712 256.749603,340.780548 
z"/>
<path fill="#FE3369" opacity="1.000000" stroke="none" 
	d="
M256.307007,340.709991 
	C256.819702,356.773712 256.889801,372.766907 256.977966,389.204926 
	C239.058258,389.691650 221.118515,389.913757 203.183517,389.713226 
	C190.835938,389.575165 182.762863,381.166077 182.588974,368.791260 
	C182.462952,359.823151 182.553726,350.851959 182.560760,341.407715 
	C201.184845,340.836212 219.795975,340.732300 238.407181,340.646179 
	C244.226151,340.619263 250.045349,340.640350 256.307007,340.709991 
z"/>
<path fill="#F13364" opacity="1.000000" stroke="none" 
	d="
M340.189636,177.902557 
	C340.189636,170.956863 340.189636,164.496506 340.189636,157.649368 
	C356.231812,157.649368 371.779694,157.649368 387.722717,157.649368 
	C387.722717,195.245331 387.722717,232.767944 387.722717,270.647949 
	C377.516296,270.647949 367.274658,270.647949 356.378784,270.647949 
	C356.378784,242.689362 356.378784,214.661194 356.378784,186.151062 
	C350.819702,186.151062 345.893555,186.151062 340.189606,186.151062 
	C340.189606,183.244644 340.189606,180.816269 340.189636,177.902557 
z"/>
<path fill="#DB2757" opacity="1.000000" stroke="none" 
	d="
M256.103485,153.795334 
	C256.248291,153.655136 256.393127,153.514938 256.756042,153.165634 
	C260.269073,153.355728 263.613556,153.517746 266.850555,154.194031 
	C283.199860,157.609848 296.194031,170.800568 297.245667,187.555054 
	C298.356842,205.258682 298.561371,223.157928 297.286163,240.836426 
	C295.795685,261.499359 278.534546,275.680542 257.358276,274.820251 
	C256.554108,264.710938 256.289856,255.120987 256.271362,245.384796 
	C256.670959,245.126114 256.824829,245.013657 257.376862,244.996460 
	C264.702179,244.488770 267.502533,241.788254 267.543152,235.194168 
	C267.629028,221.259979 267.642151,207.324341 267.535370,193.390427 
	C267.484406,186.740768 263.949036,183.710815 257.005585,183.813049 
	C256.988922,183.691727 256.959137,183.448639 256.906830,183.066589 
	C256.604187,173.054810 256.353851,163.425079 256.103485,153.795334 
z"/>
<path fill="#FE366B" opacity="1.000000" stroke="none" 
	d="
M255.697159,153.704391 
	C256.353851,163.425079 256.604187,173.054810 256.492493,183.139130 
	C247.967499,183.984329 245.290848,186.740158 245.262283,195.015274 
	C245.217712,207.934708 245.217773,220.854492 245.262665,233.773926 
	C245.291260,242.004471 247.681610,244.556198 256.025635,245.531021 
	C256.289856,255.120987 256.554108,264.710938 256.910767,274.716034 
	C257.003204,275.131165 256.863770,275.466431 256.798309,275.636383 
	C255.253464,275.637390 253.778259,275.398712 252.294083,275.310028 
	C232.173080,274.107880 216.298752,258.825562 215.465240,238.672531 
	C214.797836,222.536072 214.774918,206.326401 215.464249,190.191879 
	C216.376404,168.842850 233.201706,153.845901 255.697159,153.704391 
z"/>
<path fill="#FF366B" opacity="1.000000" stroke="none" 
	d="
M118.028137,247.063614 
	C114.869240,247.043106 112.195000,247.160950 109.541687,246.976944 
	C100.467682,246.347687 94.113464,238.842377 95.427361,229.907394 
	C98.527115,208.827759 101.763802,187.767410 105.103264,166.724335 
	C106.505875,157.886108 113.769348,152.573792 122.266830,153.745941 
	C130.689835,154.907837 136.063248,162.397629 134.739792,171.721222 
	C132.797943,185.401108 130.566315,199.039795 128.475113,212.698639 
	C128.302612,213.825302 128.259338,214.971756 128.085388,216.886505 
	C134.091263,216.886505 139.847351,217.029846 145.579056,216.720886 
	C146.373398,216.678070 147.637329,214.419937 147.678207,213.154877 
	C147.893250,206.499237 147.719818,199.832336 147.805298,193.170929 
	C147.921860,184.088364 154.033951,177.625275 162.483795,177.508041 
	C171.174286,177.387482 177.608017,183.883179 177.782440,193.125778 
	C177.898697,199.286438 178.041336,205.462357 177.734467,211.609604 
	C177.532669,215.651794 178.727478,217.013550 182.937088,217.159805 
	C190.791428,217.432678 196.549271,223.245117 197.223083,230.620178 
	C197.868256,237.681824 193.501785,244.281143 186.665009,246.311539 
	C184.937393,246.824615 183.055389,247.042786 181.250031,247.015717 
	C178.628113,246.976456 177.702606,248.107101 177.794388,250.623642 
	C177.903534,253.617065 177.918198,256.625488 177.752670,259.615143 
	C177.287155,268.023743 170.525467,274.343323 162.339951,274.145599 
	C154.350174,273.952637 148.133972,267.602631 147.800293,259.290955 
	C147.786942,258.958252 147.794037,258.624756 147.788055,258.291687 
	C147.586121,247.063614 147.586060,247.063599 136.510986,247.063568 
	C130.514786,247.063538 124.518585,247.063583 118.028137,247.063614 
z"/>
<path fill="#DCEBE5" opacity="1.000000" stroke="none" 
	d="
M256.271362,245.384796 
	C247.681610,244.556198 245.291260,242.004471 245.262665,233.773926 
	C245.217773,220.854492 245.217712,207.934708 245.262283,195.015274 
	C245.290848,186.740158 247.967499,183.984329 256.544800,183.521164 
	C256.959137,183.448639 256.988922,183.691727 256.990112,184.285919 
	C256.987122,204.887131 256.982941,224.894150 256.978729,244.901184 
	C256.824829,245.013657 256.670959,245.126114 256.271362,245.384796 
z"/>
<path fill="#B7DDCE" opacity="1.000000" stroke="none" 
	d="
M257.376862,244.996460 
	C256.982941,224.894150 256.987122,204.887131 257.006775,184.407227 
	C263.949036,183.710815 267.484406,186.740768 267.535370,193.390427 
	C267.642151,207.324341 267.629028,221.259979 267.543152,235.194168 
	C267.502533,241.788254 264.702179,244.488770 257.376862,244.996460 
z"/>
</svg>