<svg version="1.1" id="Layer_1" xmlns="http://www.w3.org/2000/svg" xmlns:xlink="http://www.w3.org/1999/xlink" x="0px" y="0px"
	 width="40%" viewBox="0 0 512 512" enable-background="new 0 0 512 512" xml:space="preserve">
<path fill="none" opacity="1.000000" stroke="none" 
	d="
M1.000000,345.000000 
	C1.000000,230.374451 1.000000,115.748917 1.000000,1.061686 
	C171.564316,1.061686 342.128662,1.061686 513.000000,1.061686 
	C513.000000,115.356476 513.000000,229.713226 512.636658,344.568298 
	C508.605103,341.482697 504.175690,340.744659 499.186829,340.912842 
	C490.800720,341.195465 482.397369,340.966949 474.002136,340.489868 
	C474.003754,264.200745 474.017426,188.375198 473.962646,112.549728 
	C473.960175,109.148590 473.790497,105.627365 472.925049,102.367477 
	C468.784424,86.771233 453.701355,73.933670 436.956848,73.961914 
	C392.628204,74.036690 348.299347,73.974945 303.970581,73.998138 
	C288.309692,74.006332 272.648834,74.103165 256.525146,74.086342 
	C196.234116,74.008705 136.405945,74.003090 76.577782,74.000496 
	C57.601707,73.999680 40.013893,91.551666 40.006744,110.492088 
	C39.977753,187.318634 39.975773,264.145203 39.497536,340.981812 
	C36.541454,340.995178 34.033657,340.805328 31.565029,341.035553 
	C21.331247,341.989868 10.452269,338.048767 1.000000,345.000000 
z"/>
<path fill="none" opacity="1.000000" stroke="none" 
	d="
M513.000000,415.000000 
	C513.000000,447.646454 513.000000,480.292938 513.000000,512.939087 
	C342.333313,512.938721 171.666656,512.938721 1.000000,512.938721 
	C1.000000,480.564117 1.000000,448.250702 1.365620,415.413696 
	C2.170464,415.539368 2.738060,416.135864 3.029851,416.845734 
	C8.272025,429.599121 22.276819,440.249725 37.976120,440.155609 
	C101.472839,439.774902 164.973175,440.004028 228.472168,439.990295 
	C237.969788,439.988251 247.467361,439.891541 257.433594,439.889709 
	C330.320740,439.962189 402.739502,439.880035 475.157501,440.081055 
	C492.268707,440.128540 503.481842,431.897980 510.917633,417.239258 
	C511.360809,416.365540 512.294495,415.740662 513.000000,415.000000 
z"/>
<path fill="#44446B" opacity="1.000000" stroke="none" 
	d="
M256.964966,439.838593 
	C247.467361,439.891541 237.969788,439.988251 228.472168,439.990295 
	C164.973175,440.004028 101.472839,439.774902 37.976120,440.155609 
	C22.276819,440.249725 8.272025,429.599121 3.029851,416.845734 
	C2.738060,416.135864 2.170464,415.539368 1.365620,414.945068 
	C1.000000,391.979095 1.000000,368.958221 1.000000,345.468658 
	C10.452269,338.048767 21.331247,341.989868 31.565029,341.035553 
	C34.033657,340.805328 36.541454,340.995178 39.959824,341.080719 
	C56.339237,341.195221 71.790070,341.221222 87.240898,341.246460 
	C119.138222,341.298523 151.035553,341.350220 182.907242,341.844482 
	C182.885681,351.759888 182.741989,361.235901 182.933640,370.705139 
	C183.142578,381.028473 190.446686,388.989899 200.678238,390.259583 
	C203.467804,390.605743 206.313690,390.555878 209.134689,390.581146 
	C225.077179,390.723969 241.019958,390.834259 256.969482,391.427032 
	C256.972534,407.878479 256.968750,423.858521 256.964966,439.838593 
z"/>
<path fill="#35355E" opacity="1.000000" stroke="none" 
	d="
M257.433594,439.889709 
	C256.968750,423.858521 256.972534,407.878479 256.940704,391.318176 
	C256.905060,390.737946 256.890442,390.513123 257.347351,390.646454 
	C274.935181,390.821655 292.066223,390.931335 309.196869,390.883606 
	C322.516266,390.846497 331.020020,382.516388 331.269745,369.187103 
	C331.444122,359.876617 331.266113,350.559479 331.694824,341.182220 
	C337.638611,341.104095 343.133087,341.080902 348.627533,341.075317 
	C390.418762,341.032776 432.210022,340.993713 474.001251,340.953491 
	C482.397369,340.966949 490.800720,341.195465 499.186829,340.912842 
	C504.175690,340.744659 508.605103,341.482697 512.636658,345.033325 
	C513.000000,368.020905 513.000000,391.041779 513.000000,414.531311 
	C512.294495,415.740662 511.360809,416.365540 510.917633,417.239258 
	C503.481842,431.897980 492.268707,440.128540 475.157501,440.081055 
	C402.739502,439.880035 330.320740,439.962189 257.433594,439.889709 
z"/>
<path fill="#DCF2EA" opacity="1.000000" stroke="none" 
	d="
M182.932877,341.402069 
	C151.035553,341.350220 119.138222,341.298523 87.240898,341.246460 
	C71.790070,341.221222 56.339237,341.195221 40.426117,341.070679 
	C39.975773,264.145203 39.977753,187.318634 40.006744,110.492088 
	C40.013893,91.551666 57.601707,73.999680 76.577782,74.000496 
	C136.405945,74.003090 196.234116,74.008705 256.528687,74.544998 
	C257.001312,101.194931 257.007568,127.313011 256.581665,153.579514 
	C234.739838,152.903885 214.348419,170.304001 215.594131,196.510361 
	C216.210678,209.480499 215.763321,222.504395 215.682968,235.503265 
	C215.636627,243.000092 217.090347,250.079330 221.004944,256.525482 
	C229.185913,269.997040 241.545563,275.888275 256.964478,276.622101 
	C256.970642,298.361725 256.966705,319.643097 256.512939,341.045105 
	C231.686340,341.244537 207.309616,341.323303 182.932877,341.402069 
M100.062439,200.574432 
	C98.674500,209.790909 97.200363,218.995407 95.919914,228.226807 
	C94.228432,240.421494 100.252914,247.436157 112.509727,247.555695 
	C122.505638,247.653198 132.503281,247.562408 142.500046,247.593475 
	C144.242828,247.598877 145.985016,247.794418 147.995468,247.918701 
	C147.995468,251.971848 147.953094,255.452286 148.003708,258.931366 
	C148.135544,267.993500 154.751068,274.889008 163.171371,274.789124 
	C171.473160,274.690674 177.878342,267.993439 178.044830,259.163208 
	C178.115356,255.422485 178.056595,251.679321 178.056595,248.065903 
	C191.536453,246.356232 197.353119,242.127182 197.539627,233.403519 
	C197.609268,230.146408 196.313904,226.487137 194.595810,223.642471 
	C191.021927,217.725143 184.576904,217.278519 178.054474,217.071869 
	C178.054474,208.764694 178.038635,200.957764 178.059921,193.150955 
	C178.074677,187.741028 175.890198,183.413345 171.455734,180.405273 
	C166.663162,177.154297 161.477600,176.809982 156.305099,179.453384 
	C150.962143,182.183884 148.106873,186.686325 148.027634,192.706451 
	C147.921021,200.806763 148.001190,208.909546 148.001190,216.990524 
	C140.986191,216.990524 134.719864,216.990524 128.062164,216.990524 
	C130.273621,202.653671 132.526062,188.718414 134.504608,174.744370 
	C134.985519,171.347855 135.212952,167.667801 134.423965,164.390915 
	C132.805603,157.669266 126.293015,153.491028 119.296005,153.879654 
	C111.913910,154.289673 106.399712,159.590195 105.127083,167.628937 
	C103.435448,178.314407 101.815140,189.011185 100.062439,200.574432 
z"/>
<path fill="#B5E5D3" opacity="1.000000" stroke="none" 
	d="
M257.013794,153.431091 
	C257.007568,127.313011 257.001312,101.194931 256.991516,74.618195 
	C272.648834,74.103165 288.309692,74.006332 303.970581,73.998138 
	C348.299347,73.974945 392.628204,74.036690 436.956848,73.961914 
	C453.701355,73.933670 468.784424,86.771233 472.925049,102.367477 
	C473.790497,105.627365 473.960175,109.148590 473.962646,112.549728 
	C474.017426,188.375198 474.003754,264.200745 474.002136,340.489868 
	C432.210022,340.993713 390.418762,341.032776 348.627533,341.075317 
	C343.133087,341.080902 337.638611,341.104095 331.213989,341.105438 
	C305.882050,341.179016 281.480347,341.266235 257.051849,341.245605 
	C257.025085,341.137756 256.962799,340.924438 256.962799,340.924438 
	C256.966705,319.643097 256.970642,298.361725 256.988831,276.533569 
	C257.003113,275.986725 257.041595,275.807098 257.479004,275.885681 
	C279.670319,276.148193 296.631165,261.791077 298.030365,240.066803 
	C299.148376,222.708511 298.906616,205.164749 297.848419,187.789780 
	C296.621277,167.640045 277.329285,152.307129 257.082397,153.831360 
	C257.060120,153.697845 257.013794,153.431091 257.013794,153.431091 
M345.505615,247.575638 
	C353.124359,247.575638 360.743073,247.575638 368.951569,247.575638 
	C368.951569,251.950790 368.877747,255.741180 368.966492,259.527771 
	C369.169342,268.182129 375.951233,274.939514 384.189240,274.785095 
	C392.297974,274.633087 398.765381,268.031891 398.985199,259.576324 
	C399.084137,255.771103 399.001984,251.961166 399.001984,248.240952 
	C413.390717,245.491013 418.638306,241.536682 418.489319,232.863174 
	C418.435547,229.733871 417.181335,226.290894 415.506195,223.592407 
	C411.870209,217.735123 405.469238,217.268097 398.999023,217.079102 
	C398.999023,208.590439 399.134674,200.611893 398.962494,192.639999 
	C398.774475,183.935196 392.006226,177.624634 383.434570,177.849548 
	C375.401825,178.060318 369.149353,184.351944 368.989136,192.704758 
	C368.833954,200.794617 368.955475,208.889786 368.955475,216.985107 
	C361.891357,216.985107 355.629333,216.985107 349.168945,216.985107 
	C349.289032,215.660156 349.324005,214.682144 349.472809,213.721786 
	C351.587555,200.072418 353.778076,186.434494 355.823669,172.774841 
	C357.271667,163.106049 352.151031,155.299805 343.717834,154.009445 
	C334.541504,152.605392 327.491608,158.471298 325.956604,168.613068 
	C322.893402,188.851669 319.732819,209.075516 316.648010,229.310852 
	C315.133850,239.243103 321.046509,246.794937 331.020538,247.455902 
	C335.499664,247.752701 340.011841,247.550995 345.505615,247.575638 
z"/>
<path fill="#FF346A" opacity="1.000000" stroke="none" 
	d="
M182.907242,341.844482 
	C207.309616,341.323303 231.686340,341.244537 256.512939,341.045105 
	C256.962799,340.924438 257.025085,341.137756 257.029907,341.693512 
	C256.986664,358.337219 256.938538,374.425171 256.890442,390.513123 
	C256.890442,390.513123 256.905060,390.737946 256.933838,390.846802 
	C241.019958,390.834259 225.077179,390.723969 209.134689,390.581146 
	C206.313690,390.555878 203.467804,390.605743 200.678238,390.259583 
	C190.446686,388.989899 183.142578,381.028473 182.933640,370.705139 
	C182.741989,361.235901 182.885681,351.759888 182.907242,341.844482 
z"/>
<path fill="#DA2657" opacity="1.000000" stroke="none" 
	d="
M257.347351,390.646454 
	C256.938538,374.425171 256.986664,358.337219 257.056702,341.801361 
	C281.480347,341.266235 305.882050,341.179016 330.764648,341.168549 
	C331.266113,350.559479 331.444122,359.876617 331.269745,369.187103 
	C331.020020,382.516388 322.516266,390.846497 309.196869,390.883606 
	C292.066223,390.931335 274.935181,390.821655 257.347351,390.646454 
z"/>
<path fill="#FF356A" opacity="1.000000" stroke="none" 
	d="
M100.113312,200.138763 
	C101.815140,189.011185 103.435448,178.314407 105.127083,167.628937 
	C106.399712,159.590195 111.913910,154.289673 119.296005,153.879654 
	C126.293015,153.491028 132.805603,157.669266 134.423965,164.390915 
	C135.212952,167.667801 134.985519,171.347855 134.504608,174.744370 
	C132.526062,188.718414 130.273621,202.653671 128.062164,216.990524 
	C134.719864,216.990524 140.986191,216.990524 148.001190,216.990524 
	C148.001190,208.909546 147.921021,200.806763 148.027634,192.706451 
	C148.106873,186.686325 150.962143,182.183884 156.305099,179.453384 
	C161.477600,176.809982 166.663162,177.154297 171.455734,180.405273 
	C175.890198,183.413345 178.074677,187.741028 178.059921,193.150955 
	C178.038635,200.957764 178.054474,208.764694 178.054474,217.071869 
	C184.576904,217.278519 191.021927,217.725143 194.595810,223.642471 
	C196.313904,226.487137 197.609268,230.146408 197.539627,233.403519 
	C197.353119,242.127182 191.536453,246.356232 178.056595,248.065903 
	C178.056595,251.679321 178.115356,255.422485 178.044830,259.163208 
	C177.878342,267.993439 171.473160,274.690674 163.171371,274.789124 
	C154.751068,274.889008 148.135544,267.993500 148.003708,258.931366 
	C147.953094,255.452286 147.995468,251.971848 147.995468,247.918701 
	C145.985016,247.794418 144.242828,247.598877 142.500046,247.593475 
	C132.503281,247.562408 122.505638,247.653198 112.509727,247.555695 
	C100.252914,247.436157 94.228432,240.421494 95.919914,228.226807 
	C97.200363,218.995407 98.674500,209.790909 100.113312,200.138763 
z"/>
<path fill="#FF356A" opacity="1.000000" stroke="none" 
	d="
M256.978760,276.075256 
	C241.545563,275.888275 229.185913,269.997040 221.004944,256.525482 
	C217.090347,250.079330 215.636627,243.000092 215.682968,235.503265 
	C215.763321,222.504395 216.210678,209.480499 215.594131,196.510361 
	C214.348419,170.304001 234.739838,152.903885 256.581665,153.579514 
	C257.013794,153.431091 257.060120,153.697845 257.051758,154.302887 
	C257.021362,164.537979 256.999298,174.168030 256.573883,183.850128 
	C248.581207,184.375732 245.870087,187.181213 245.844345,194.818542 
	C245.800125,207.933701 245.811829,221.049149 245.836899,234.164413 
	C245.853195,242.691208 248.317276,245.288147 256.958466,246.491089 
	C256.992401,256.574463 257.016998,266.190765 257.041595,275.807098 
	C257.041595,275.807098 257.003113,275.986725 256.978760,276.075256 
z"/>
<path fill="#DB2757" opacity="1.000000" stroke="none" 
	d="
M345.007324,247.575562 
	C340.011841,247.550995 335.499664,247.752701 331.020538,247.455902 
	C321.046509,246.794937 315.133850,239.243103 316.648010,229.310852 
	C319.732819,209.075516 322.893402,188.851669 325.956604,168.613068 
	C327.491608,158.471298 334.541504,152.605392 343.717834,154.009445 
	C352.151031,155.299805 357.271667,163.106049 355.823669,172.774841 
	C353.778076,186.434494 351.587555,200.072418 349.472809,213.721786 
	C349.324005,214.682144 349.289032,215.660156 349.168945,216.985107 
	C355.629333,216.985107 361.891357,216.985107 368.955475,216.985107 
	C368.955475,208.889786 368.833954,200.794617 368.989136,192.704758 
	C369.149353,184.351944 375.401825,178.060318 383.434570,177.849548 
	C392.006226,177.624634 398.774475,183.935196 398.962494,192.639999 
	C399.134674,200.611893 398.999023,208.590439 398.999023,217.079102 
	C405.469238,217.268097 411.870209,217.735123 415.506195,223.592407 
	C417.181335,226.290894 418.435547,229.733871 418.489319,232.863174 
	C418.638306,241.536682 413.390717,245.491013 399.001984,248.240952 
	C399.001984,251.961166 399.084137,255.771103 398.985199,259.576324 
	C398.765381,268.031891 392.297974,274.633087 384.189240,274.785095 
	C375.951233,274.939514 369.169342,268.182129 368.966492,259.527771 
	C368.877747,255.741180 368.951569,251.950790 368.951569,247.575638 
	C360.743073,247.575638 353.124359,247.575638 345.007324,247.575562 
z"/>
<path fill="#DB2757" opacity="1.000000" stroke="none" 
	d="
M257.479004,275.885681 
	C257.016998,266.190765 256.992401,256.574463 256.979095,246.382202 
	C256.990387,245.806274 257.023529,245.587143 257.399475,245.635498 
	C265.584595,244.903915 268.020355,242.318924 268.033173,234.662872 
	C268.055420,221.360565 268.060150,208.058136 268.030457,194.755844 
	C268.013245,187.046555 264.788635,183.968262 257.023468,184.048721 
	C257.009674,183.964890 256.977234,183.798080 256.977234,183.798080 
	C256.999298,174.168030 257.021362,164.537979 257.074036,154.436401 
	C277.329285,152.307129 296.621277,167.640045 297.848419,187.789780 
	C298.906616,205.164749 299.148376,222.708511 298.030365,240.066803 
	C296.631165,261.791077 279.670319,276.148193 257.479004,275.885681 
z"/>
<path fill="#DCF1E9" opacity="1.000000" stroke="none" 
	d="
M256.969757,245.915161 
	C248.317276,245.288147 245.853195,242.691208 245.836899,234.164413 
	C245.811829,221.049149 245.800125,207.933701 245.844345,194.818542 
	C245.870087,187.181213 248.581207,184.375732 256.573883,183.850128 
	C256.977234,183.798080 257.009674,183.964890 257.009979,184.508270 
	C257.014679,205.230148 257.019104,225.408646 257.023529,245.587143 
	C257.023529,245.587143 256.990387,245.806274 256.969757,245.915161 
z"/>
<path fill="#B5E4D2" opacity="1.000000" stroke="none" 
	d="
M257.399475,245.635498 
	C257.019104,225.408646 257.014679,205.230148 257.023773,184.592102 
	C264.788635,183.968262 268.013245,187.046555 268.030457,194.755844 
	C268.060150,208.058136 268.055420,221.360565 268.033173,234.662872 
	C268.020355,242.318924 265.584595,244.903915 257.399475,245.635498 
z"/>
</svg>