<svg width="37" height="19" viewBox="0 0 37 19" fill="none" xmlns="http://www.w3.org/2000/svg">
<path d="M26.8145 9.45503C25.7504 7.81307 24.484 6.47397 23.0153 5.43771L21.4751 6.56575C22.7311 7.44482 23.8251 8.59481 24.7711 10.027C22.2525 13.8448 18.6773 15.6584 13.7913 15.6584C12.3247 15.6584 10.9738 15.493 9.73872 15.1622L8.0698 16.3845C9.78524 16.9646 11.6924 17.2546 13.7913 17.2546C19.6097 17.2546 23.9508 15.0354 26.8145 10.5968C26.9297 10.4183 26.9894 10.2233 26.9894 10.0259C26.9894 9.8285 26.9297 9.63354 26.8145 9.45503ZM24.8901 2.34624L23.5996 1.4C23.5771 1.38351 23.5504 1.37043 23.521 1.3615C23.4916 1.35258 23.4601 1.34798 23.4282 1.34798C23.3964 1.34798 23.3649 1.35258 23.3355 1.3615C23.3061 1.37043 23.2794 1.38351 23.2569 1.4L19.946 3.82369C18.1206 3.14084 16.069 2.79941 13.7913 2.79941C7.97293 2.79941 3.63185 5.01869 0.768071 9.45724C0.652961 9.63576 0.593262 9.83072 0.593262 10.0281C0.593262 10.2256 0.652961 10.4205 0.768071 10.599C1.91217 12.3638 3.28957 13.7784 4.90027 14.8427L1.69683 17.1881C1.65145 17.2214 1.62595 17.2665 1.62595 17.3135C1.62595 17.3605 1.65145 17.4056 1.69683 17.4389L2.98916 18.3853C3.03458 18.4186 3.09615 18.4373 3.16036 18.4373C3.22456 18.4373 3.28613 18.4186 3.33155 18.3853L24.8901 2.59722C24.9126 2.58074 24.9305 2.56118 24.9427 2.53965C24.9549 2.51812 24.9611 2.49504 24.9611 2.47173C24.9611 2.44842 24.9549 2.42534 24.9427 2.40381C24.9305 2.38228 24.9126 2.36272 24.8901 2.34624ZM2.81147 10.027C5.33316 6.20925 8.90835 4.3957 13.7913 4.3957C15.4424 4.3957 16.9436 4.60321 18.3055 5.02512L16.1774 6.58371C15.1695 6.18988 14.0155 6.04372 12.8856 6.16679C11.7556 6.28985 10.7096 6.67563 9.90187 7.26721C9.0941 7.8588 8.56734 8.62486 8.3993 9.45238C8.23126 10.2799 8.43084 11.1251 8.96859 11.8632L6.44326 13.7127C5.04557 12.8092 3.84073 11.5852 2.81147 10.027ZM10.2797 10.027C10.2802 9.63608 10.4067 9.25074 10.6487 8.90231C10.8908 8.55387 11.2417 8.25217 11.6729 8.02172C12.1041 7.79126 12.6035 7.63855 13.1304 7.57599C13.6573 7.51342 14.197 7.54277 14.7055 7.66165L10.4404 10.7853C10.3335 10.5401 10.2793 10.2843 10.2797 10.027Z" fill="black"/>
<path d="M13.6695 12.5101C13.5648 12.5101 13.4616 12.5066 13.3592 12.4997L11.7603 13.6708C12.722 13.9405 13.7698 14.0005 14.7771 13.8434C15.7843 13.6863 16.7079 13.3188 17.4361 12.7855C18.1643 12.2522 18.666 11.5758 18.8805 10.8382C19.095 10.1005 19.0131 9.33308 18.6448 8.62874L17.0458 9.79979C17.0552 9.87473 17.0601 9.95033 17.0601 10.027C17.0603 10.3532 16.9728 10.6761 16.8025 10.9775C16.6322 11.2788 16.3824 11.5526 16.0675 11.7833C15.7526 12.0139 15.3788 12.1968 14.9673 12.3215C14.5559 12.4462 14.1149 12.5103 13.6695 12.5101Z" fill="black"/>
</svg>
