<svg width="33" height="23" viewBox="0 0 33 23" fill="none" xmlns="http://www.w3.org/2000/svg">
<path d="M29.2808 0H13.4123C11.662 0 10.2386 1.01822 10.2386 2.27027V6.81081H3.89123C2.14093 6.81081 0.717529 7.82903 0.717529 9.08108V20.4324C0.717529 21.6845 2.14093 22.7027 3.89123 22.7027H19.7597C21.51 22.7027 22.9334 21.6845 22.9334 20.4324V15.8919H29.2808C31.0311 15.8919 32.4545 14.8737 32.4545 13.6216V2.27027C32.4545 1.01822 31.0311 0 29.2808 0ZM3.89123 20.4324V9.08108H19.7597L19.7629 20.4324H3.89123ZM29.2808 13.6216H22.9334V9.08108C22.9334 7.82903 21.51 6.81081 19.7597 6.81081H13.4123V2.27027H29.2808V13.6216Z" fill="black"/>
</svg>
