<svg width="28" height="18" viewBox="0 0 33 18" fill="none" xmlns="http://www.w3.org/2000/svg">
<path d="M31.9443 8.7857C28.4938 3.57052 23.278 0.945953 16.286 0.945953C9.29033 0.945953 4.07817 3.57052 0.62766 8.78831C0.489259 8.99858 0.41748 9.22823 0.41748 9.46077C0.41748 9.69331 0.489259 9.92297 0.62766 10.1332C4.07817 15.3484 9.29397 17.973 16.286 17.973C23.2816 17.973 28.4938 15.3484 31.9443 10.1306C32.2246 9.70756 32.2246 9.2166 31.9443 8.7857ZM16.286 16.0927C10.415 16.0927 6.11644 13.9565 3.08451 9.45947C6.11644 4.96245 10.415 2.82624 16.286 2.82624C22.1569 2.82624 26.4555 4.96245 29.4875 9.45947C26.4592 13.9565 22.1606 16.0927 16.286 16.0927ZM16.1404 4.86321C12.6025 4.86321 9.73438 6.92108 9.73438 9.45947C9.73438 11.9979 12.6025 14.0557 16.1404 14.0557C19.6783 14.0557 22.5464 11.9979 22.5464 9.45947C22.5464 6.92108 19.6783 4.86321 16.1404 4.86321ZM16.1404 12.3844C13.8874 12.3844 12.0638 11.076 12.0638 9.45947C12.0638 7.84294 13.8874 6.53458 16.1404 6.53458C18.3934 6.53458 20.2169 7.84294 20.2169 9.45947C20.2169 11.076 18.3934 12.3844 16.1404 12.3844Z" fill="black"/>
</svg>
