<svg width="87" height="17" viewBox="0 0 87 17" fill="none" xmlns="http://www.w3.org/2000/svg">
<path d="M30.716 8.72604H7.0825C6.72637 8.72604 6.43677 8.4377 6.43677 8.08165C6.43677 7.72626 6.7257 7.43726 7.0825 7.43726H30.716C31.0721 7.43726 31.3617 7.72559 31.3617 8.08165C31.3611 8.43703 31.0735 8.72604 30.716 8.72604Z" fill="black"/>
<path d="M79.1992 8.72604H55.564C55.2085 8.72604 54.9182 8.4377 54.9182 8.08165C54.9182 7.72626 55.2085 7.43726 55.564 7.43726H79.1975C79.5536 7.43726 79.8432 7.72559 79.8432 8.08165C79.8439 8.43703 79.5549 8.72604 79.1988 8.72604H79.1992Z" fill="black"/>
<path d="M38.1712 16.164C33.7062 16.164 30.073 12.5391 30.073 8.08266C30.073 3.62621 33.7069 0.00128174 38.1712 0.00128174C38.5274 0.00128174 38.817 0.289619 38.817 0.645674C38.817 1.00106 38.528 1.29006 38.1712 1.29006C34.4185 1.29006 31.3638 4.3377 31.3638 8.08331C31.3638 11.8282 34.4185 14.8766 38.1712 14.8766C38.5274 14.8766 38.817 15.1649 38.817 15.5209C38.8163 15.8757 38.5274 16.164 38.1712 16.164Z" fill="black"/>
<path d="M48.1122 16.1641C47.7561 16.1641 47.4658 15.8757 47.4658 15.5197C47.4658 15.1643 47.7561 14.8753 48.1122 14.8753C51.865 14.8753 54.9197 11.8269 54.9197 8.08203C54.9197 4.33574 51.865 1.28878 48.1122 1.28878C47.7561 1.28878 47.4658 1.00045 47.4658 0.644393C47.4658 0.289007 47.7561 0 48.1122 0C52.578 0 56.2105 3.62493 56.2105 8.08137C56.2105 12.5392 52.578 16.1641 48.1122 16.1641Z" fill="black"/>
<path d="M83.0094 12.0648C80.8094 12.0648 79.0194 10.2785 79.0194 8.08248C79.0194 5.88576 80.8081 4.10016 83.0094 4.10016C85.2107 4.10016 87 5.88645 87 8.08248C86.9993 10.2778 85.2093 12.0648 83.0094 12.0648ZM83.0094 5.1756C81.4034 5.1756 80.0971 6.47915 80.0971 8.08248C80.0971 9.68508 81.4034 10.9894 83.0094 10.9894C84.616 10.9894 85.9223 9.68582 85.9223 8.08248C85.9223 6.47915 84.616 5.1756 83.0094 5.1756Z" fill="black"/>
<path d="M7.08424 8.08239C7.08424 9.98472 5.53877 11.5269 3.63322 11.5269C1.72693 11.5269 0.181519 9.98465 0.181519 8.08239C0.181519 6.18014 1.72699 4.63788 3.63322 4.63788C5.53884 4.63788 7.08424 6.18014 7.08424 8.08239Z" fill="black"/>
<path d="M3.63181 11.706C1.63004 11.706 0 10.0806 0 8.08178C0 6.08349 1.6288 4.45685 3.63181 4.45685C5.63427 4.45685 7.26431 6.0836 7.26431 8.08178C7.26431 10.08 5.63483 11.706 3.63181 11.706ZM3.63181 4.81613C1.82838 4.81613 0.360033 6.28128 0.360033 8.0816C0.360033 9.88193 1.82824 11.3471 3.63181 11.3471C5.43731 11.3471 6.9041 9.88193 6.9041 8.0816C6.90545 6.27987 5.43726 4.81613 3.63181 4.81613Z" fill="black"/>
<path d="M44.5634 8.38258C44.5634 9.31732 43.8035 10.075 42.8668 10.075C41.9301 10.075 41.1708 9.31732 41.1708 8.38258C41.1708 7.44718 41.9301 6.68945 42.8668 6.68945C43.8035 6.68945 44.5634 7.44718 44.5634 8.38258Z" fill="black"/>
<path d="M49.5658 8.38271C49.5658 9.31677 48.8072 10.0745 47.8705 10.0745C46.9345 10.0745 46.1752 9.31677 46.1752 8.38271C46.1752 7.44797 46.9345 6.69092 47.8705 6.69092C48.8072 6.69092 49.5658 7.44797 49.5658 8.38271Z" fill="black"/>
<path d="M39.4647 8.38258C39.4647 9.31732 38.7054 10.075 37.7687 10.075C36.8313 10.075 36.072 9.31732 36.072 8.38258C36.072 7.44718 36.8313 6.68945 37.7687 6.68945C38.7054 6.68945 39.4647 7.44718 39.4647 8.38258Z" fill="black"/>
</svg>
