<svg width="20" height="20" viewBox="0 0 20 20" fill="none" xmlns="http://www.w3.org/2000/svg">
<path d="M15.5 16V16.5H16C16.1326 16.5 16.2598 16.5527 16.3536 16.6464C16.4473 16.7402 16.5 16.8674 16.5 17C16.5 17.1326 16.4473 17.2598 16.3536 17.3536C16.2598 17.4473 16.1326 17.5 16 17.5H13C12.8674 17.5 12.7402 17.4473 12.6464 17.3536C12.5527 17.2598 12.5 17.1326 12.5 17V15C12.5 14.6022 12.342 14.2206 12.0607 13.9393C11.7794 13.658 11.3978 13.5 11 13.5H9C8.60218 13.5 8.22064 13.658 7.93934 13.9393C7.65804 14.2206 7.5 14.6022 7.5 15V17C7.5 17.1326 7.44732 17.2598 7.35355 17.3536C7.25979 17.4473 7.13261 17.5 7 17.5H4C3.86739 17.5 3.74021 17.4473 3.64645 17.3536C3.55268 17.2598 3.5 17.1326 3.5 17C3.5 16.8674 3.55268 16.7402 3.64645 16.6464C3.74021 16.5527 3.86739 16.5 4 16.5H4.5V16V4C4.5 3.60218 4.65804 3.22064 4.93934 2.93934C5.22064 2.65804 5.60218 2.5 6 2.5H14C14.3978 2.5 14.7794 2.65804 15.0607 2.93934C15.342 3.22064 15.5 3.60218 15.5 4V16ZM7 4.5H6.5V5V7V7.5H7H9H9.5V7V5V4.5H9H7ZM9.5 9V8.5H9H7H6.5V9V11V11.5H7H9H9.5V11V9ZM11 4.5H10.5V5V7V7.5H11H13H13.5V7V5V4.5H13H11ZM13.5 9V8.5H13H11H10.5V9V11V11.5H11H13H13.5V11V9Z" fill="#6B7280" stroke="#6B7280"/>
</svg>
