<svg width="20" height="20" viewBox="0 0 20 20" fill="none" xmlns="http://www.w3.org/2000/svg">
<g clip-path="url(#clip0_501_108)">
<path d="M5.93359 17.543H6.43359V17.043V7.49609V6.99609H5.93359H2.96484H2.46484V7.49609V17.043V17.543H2.96484H5.93359ZM13.5781 17.043V17.543H14.0781H17.043V17.043H17.543V11.8047C17.543 10.5085 17.4087 9.24528 16.8131 8.3007C16.1842 7.30325 15.1095 6.75781 13.4844 6.75781C12.5171 6.75781 11.7251 7.0738 11.1406 7.51955V7.49609V6.99609H10.6406H7.79688H7.29688V7.49609V17.043V17.543H7.79688H10.7578H11.2578V17.043V12.3242C11.2578 11.71 11.3203 11.2091 11.506 10.8712C11.5924 10.714 11.7029 10.5975 11.8492 10.5163C11.9983 10.4335 12.2145 10.3711 12.5352 10.3711C12.8362 10.3711 13.0173 10.4405 13.1326 10.521C13.249 10.6024 13.3416 10.7253 13.4129 10.9058C13.5668 11.2956 13.5781 11.8273 13.5781 12.4023V17.043ZM1.47656 0.5H18.5195C19.0729 0.5 19.5 0.93364 19.5 1.44141V18.5586C19.5 19.0633 19.0721 19.5 18.5195 19.5H1.47656C0.926674 19.5 0.5 19.0659 0.5 18.5547V1.44141C0.5 0.931943 0.924893 0.5 1.47656 0.5ZM2.22656 4.47656C2.22656 5.70266 3.22069 6.69531 4.44922 6.69531C5.67532 6.69531 6.66797 5.69728 6.66797 4.47656C6.66797 3.2512 5.67458 2.25781 4.44922 2.25781C3.22069 2.25781 2.22656 3.25046 2.22656 4.47656Z" fill="#6B7280" stroke="#6B7280"/>
</g>
<defs>
<clipPath id="clip0_501_108">
<rect width="20" height="20" fill="white"/>
</clipPath>
</defs>
</svg>
