<svg width="20" height="20" viewBox="0 0 20 20" fill="none" xmlns="http://www.w3.org/2000/svg">
<path d="M11.875 12.0833L10.925 12.7167C10.6511 12.8994 10.3292 12.9969 10 12.9969C9.67075 12.9969 9.34888 12.8994 9.075 12.7167L8.125 12.0833" fill="#6B7280"/>
<path d="M2.5 15.8333V8.39167C2.49996 8.11735 2.56763 7.84726 2.69701 7.60536C2.82639 7.36347 3.01347 7.15725 3.24167 7.005L9.075 3.11667C9.34888 2.93394 9.67075 2.83642 10 2.83642C10.3292 2.83642 10.6511 2.93394 10.925 3.11667L16.7583 7.005C16.9865 7.15725 17.1736 7.36347 17.303 7.60536C17.4324 7.84726 17.5 8.11735 17.5 8.39167V15.8333M2.5 15.8333C2.5 16.2754 2.67559 16.6993 2.98816 17.0118C3.30072 17.3244 3.72464 17.5 4.16667 17.5H15.8333C16.2754 17.5 16.6993 17.3244 17.0118 17.0118C17.3244 16.6993 17.5 16.2754 17.5 15.8333M2.5 15.8333L8.125 12.0833M17.5 15.8333L11.875 12.0833M8.125 12.0833L2.5 8.33333M8.125 12.0833L9.075 12.7167C9.34888 12.8994 9.67075 12.9969 10 12.9969C10.3292 12.9969 10.6511 12.8994 10.925 12.7167L11.875 12.0833M11.875 12.0833L17.5 8.33333" stroke="#6B7280" stroke-width="2" stroke-linecap="round" stroke-linejoin="round"/>
</svg>
