<svg width="20" height="20" viewBox="0 0 20 20" fill="none" xmlns="http://www.w3.org/2000/svg">
<g clip-path="url(#clip0_501_90)">
<path d="M6.2918 17.625H6.29154C4.82313 17.6258 3.37584 17.3363 2.03061 16.7804C3.61351 16.591 5.12163 15.9706 6.38582 14.9776L7.48697 14.1126L6.087 14.0845C5.33508 14.0694 4.60664 13.8199 4.00334 13.3709C3.61505 13.0819 3.29106 12.7195 3.04806 12.307C3.44576 12.3046 3.84274 12.2504 4.22883 12.1448L4.19554 11.1723C3.3797 11.0081 2.6459 10.5664 2.11889 9.92237C1.7505 9.47216 1.49904 8.94248 1.38122 8.38017C1.7897 8.51174 2.21596 8.58606 2.64781 8.59977L4.39296 8.65517L2.94166 7.68442C2.1795 7.17462 1.64005 6.39375 1.43294 5.5005C1.28117 4.84595 1.31621 4.16705 1.52679 3.53885C2.50243 4.58969 3.65784 5.46118 4.94067 6.11113C6.4598 6.8808 8.12371 7.32263 9.82455 7.40798L10.4859 7.44117L10.3368 6.79597C10.1581 6.0233 10.2389 5.21328 10.5668 4.49117C10.8947 3.76905 11.4513 3.17505 12.1506 2.801C12.8499 2.42696 13.653 2.2937 14.4356 2.42184C15.2183 2.54997 15.9369 2.93236 16.4804 3.50988L16.6701 3.7114L16.9415 3.6577C17.3877 3.56945 17.8256 3.44669 18.2512 3.2909C18.0046 3.57244 17.714 3.8163 17.3879 4.01179L17.7026 4.9373C17.974 4.90578 18.2434 4.86136 18.5099 4.8043C18.2444 5.06052 17.9606 5.29814 17.6605 5.51518L17.442 5.67317L17.454 5.94253C17.4615 6.11076 17.4652 6.28305 17.4652 6.45158C17.4652 11.6573 13.5036 17.625 6.2918 17.625ZM18.7598 2.53719C18.1504 2.8243 17.5073 3.03612 16.8445 3.16721L18.7598 2.53719ZM18.4725 3.78755C18.1811 3.85704 17.8855 3.90933 17.5872 3.94398L17.6449 4.44064L17.902 4.8695C18.2016 4.68989 18.4778 4.47827 18.7264 4.23974C18.8644 4.20423 19.0015 4.16507 19.1376 4.12231L18.4725 3.78755ZM17.9652 6.45158C17.9652 6.2758 17.9613 6.09611 17.9535 5.92033L0.979705 16.8422C0.977612 16.8422 0.975519 16.8422 0.973426 16.8422C2.61434 17.6838 4.43695 18.126 6.2918 18.125C13.8371 18.125 17.9652 11.8723 17.9652 6.45158Z" fill="#6B7280" stroke="#6B7280"/>
</g>
<defs>
<clipPath id="clip0_501_90">
<rect width="20" height="20" fill="white"/>
</clipPath>
</defs>
</svg>
