<svg width="20" height="20" viewBox="0 0 20 20" fill="none" xmlns="http://www.w3.org/2000/svg">
<path d="M8.33848 5.24692L8.33856 5.24674C8.59406 4.65163 8.88485 4.20004 9.18446 3.90546C9.482 3.612 9.75718 3.5 10 3.5C10.243 3.5 10.5184 3.61218 10.8163 3.90616L10.8163 3.9062C11.1137 4.19987 11.4055 4.64954 11.6615 5.24692H8.33848ZM8.33848 5.24692C7.92218 6.21757 7.62888 7.51063 7.53308 8.96719L7.49803 9.5M8.33848 5.24692L7.49803 9.5M7.49803 9.5H8.032M7.49803 9.5H8.032M8.032 9.5H11.968H12.502M8.032 9.5H12.502M12.502 9.5L12.4669 8.96719M12.502 9.5L12.4669 8.96719M12.4669 8.96719C12.3711 7.51069 12.0778 6.21767 11.6616 5.24704L12.4669 8.96719ZM11.202 14.556L11.6615 14.7531C12.0778 13.7824 12.3711 12.4894 12.4669 11.0328L12.502 10.5H11.968H8.032H7.49803L7.53308 11.0328C7.62887 12.4893 7.92216 13.7823 8.33843 14.753C8.59447 15.3504 8.88625 15.8001 9.18371 16.0938L9.18374 16.0938C9.48157 16.3878 9.75699 16.5 10 16.5C10.2428 16.5 10.518 16.388 10.8155 16.0945C11.1149 15.8003 11.4068 15.3488 11.6617 14.7526L11.202 14.556ZM11.202 14.556C10.963 15.115 10.703 15.504 10.465 15.738L8.07348 11.5H8.032V11L8.53092 10.9672C8.53164 10.9781 8.53237 10.9891 8.53312 11H11.4669C11.4676 10.9891 11.4684 10.9781 11.4691 10.9672L11.968 11V11.5H11.9265C11.8055 12.7051 11.5444 13.7576 11.202 14.556ZM3.59 8.91661L3.49132 9.5H4.083H6.029H6.50104L6.52817 9.02874C6.61475 7.52482 6.90028 6.15492 7.33096 5.06588L7.88172 3.67321L6.60477 4.45567C5.8129 4.94089 5.13412 5.59007 4.61411 6.35954C4.09409 7.129 3.74489 8.00091 3.59 8.91661ZM13.4718 9.02874L13.499 9.5H13.971H15.917H16.5087L16.41 8.91661C16.2551 8.00091 15.9059 7.129 15.3859 6.35954C14.8659 5.59007 14.1871 4.94089 13.3952 4.45567L12.1183 3.67321L12.669 5.06588C13.0997 6.15492 13.3852 7.52482 13.4718 9.02874ZM12.6691 14.934L12.1176 16.3272L13.3952 15.5443C14.1871 15.0591 14.8659 14.4099 15.3859 13.6405C15.9059 12.871 16.2551 11.9991 16.41 11.0834L16.5087 10.5H15.917H13.971H13.499L13.4718 10.9713C13.3852 12.4753 13.0997 13.8461 12.6691 14.934ZM6.60477 15.5443L7.88172 16.3268L7.33096 14.9341C6.90028 13.8451 6.61478 12.4753 6.52919 10.9716L6.50235 10.5H6.03H4.083H3.49132L3.59 11.0834C3.74489 11.9991 4.09409 12.871 4.61411 13.6405C5.13412 14.4099 5.8129 15.0591 6.60477 15.5443ZM4.6967 4.6967C6.10322 3.29018 8.01088 2.5 10 2.5C11.9891 2.5 13.8968 3.29018 15.3033 4.6967C16.7098 6.10322 17.5 8.01088 17.5 10C17.5 11.9891 16.7098 13.8968 15.3033 15.3033C13.8968 16.7098 11.9891 17.5 10 17.5C8.01088 17.5 6.10322 16.7098 4.6967 15.3033C3.29018 13.8968 2.5 11.9891 2.5 10C2.5 8.01088 3.29018 6.10322 4.6967 4.6967Z" fill="#6B7280" stroke="#6B7280"/>
</svg>
